<svg id="visual" viewBox="0 0 900 450" width="900" height="450" xmlns="http://www.w3.org/2000/svg" xmlns:xlink="http://www.w3.org/1999/xlink" version="1.1"><rect x="0" y="0" width="900" height="450" fill="#D8E4FA"></rect><path d="M0 67L7.2 105.3C14.3 143.7 28.7 220.3 43 257.3C57.3 294.3 71.7 291.7 86 273.2C100.3 254.7 114.7 220.3 128.8 232.5C143 244.7 157 303.3 171.2 286.3C185.3 269.3 199.7 176.7 214 169.3C228.3 162 242.7 240 257 295.7C271.3 351.3 285.7 384.7 300 345.8C314.3 307 328.7 196 343 190C357.3 184 371.7 283 386 316.5C400.3 350 414.7 318 428.8 307.3C443 296.7 457 307.3 471.2 270C485.3 232.7 499.7 147.3 514 149.8C528.3 152.3 542.7 242.7 557 261.7C571.3 280.7 585.7 228.3 600 194.2C614.3 160 628.7 144 643 179.3C657.3 214.7 671.7 301.3 686 324.8C700.3 348.3 714.7 308.7 728.8 254.3C743 200 757 131 771.2 132.2C785.3 133.3 799.7 204.7 814 254.3C828.3 304 842.7 332 857 340.2C871.3 348.3 885.7 336.7 892.8 330.8L900 325L900 0L892.8 0C885.7 0 871.3 0 857 0C842.7 0 828.3 0 814 0C799.7 0 785.3 0 771.2 0C757 0 743 0 728.8 0C714.7 0 700.3 0 686 0C671.7 0 657.3 0 643 0C628.7 0 614.3 0 600 0C585.7 0 571.3 0 557 0C542.7 0 528.3 0 514 0C499.7 0 485.3 0 471.2 0C457 0 443 0 428.8 0C414.7 0 400.3 0 386 0C371.7 0 357.3 0 343 0C328.7 0 314.3 0 300 0C285.7 0 271.3 0 257 0C242.7 0 228.3 0 214 0C199.7 0 185.3 0 171.2 0C157 0 143 0 128.8 0C114.7 0 100.3 0 86 0C71.7 0 57.3 0 43 0C28.7 0 14.3 0 7.2 0L0 0Z" fill="#d8e4fa"></path><path d="M0 218L7.2 215C14.3 212 28.7 206 43 220.2C57.3 234.3 71.7 268.7 86 263.8C100.3 259 114.7 215 128.8 198C143 181 157 191 171.2 205.3C185.3 219.7 199.7 238.3 214 211.3C228.3 184.3 242.7 111.7 257 76C271.3 40.3 285.7 41.7 300 79.7C314.3 117.7 328.7 192.3 343 231.8C357.3 271.3 371.7 275.7 386 240.2C400.3 204.7 414.7 129.3 428.8 94.2C443 59 457 64 471.2 101.8C485.3 139.7 499.7 210.3 514 262C528.3 313.7 542.7 346.3 557 309.8C571.3 273.3 585.7 167.7 600 112.5C614.3 57.3 628.7 52.7 643 46.3C657.3 40 671.7 32 686 78.8C700.3 125.7 714.7 227.3 728.8 256.7C743 286 757 243 771.2 241.8C785.3 240.7 799.7 281.3 814 300.7C828.3 320 842.7 318 857 273.3C871.3 228.7 885.7 141.3 892.8 97.7L900 54L900 0L892.8 0C885.7 0 871.3 0 857 0C842.7 0 828.3 0 814 0C799.7 0 785.3 0 771.2 0C757 0 743 0 728.8 0C714.7 0 700.3 0 686 0C671.7 0 657.3 0 643 0C628.7 0 614.3 0 600 0C585.7 0 571.3 0 557 0C542.7 0 528.3 0 514 0C499.7 0 485.3 0 471.2 0C457 0 443 0 428.8 0C414.7 0 400.3 0 386 0C371.7 0 357.3 0 343 0C328.7 0 314.3 0 300 0C285.7 0 271.3 0 257 0C242.7 0 228.3 0 214 0C199.7 0 185.3 0 171.2 0C157 0 143 0 128.8 0C114.7 0 100.3 0 86 0C71.7 0 57.3 0 43 0C28.7 0 14.3 0 7.2 0L0 0Z" fill="#bbcefb"></path><path d="M0 117L7.2 99.8C14.3 82.7 28.7 48.3 43 81.8C57.3 115.3 71.7 216.7 86 216.5C100.3 216.3 114.7 114.7 128.8 69.2C143 23.7 157 34.3 171.2 36.3C185.3 38.3 199.7 31.7 214 25.5C228.3 19.3 242.7 13.7 257 19.3C271.3 25 285.7 42 300 77.2C314.3 112.3 328.7 165.7 343 159.7C357.3 153.7 371.7 88.3 386 70.2C400.3 52 414.7 81 428.8 88.7C443 96.3 457 82.7 471.2 103.8C485.3 125 499.7 181 514 204.7C528.3 228.3 542.7 219.7 557 185C571.3 150.3 585.7 89.7 600 63C614.3 36.3 628.7 43.7 643 53.2C657.3 62.7 671.7 74.3 686 67.3C700.3 60.3 714.7 34.7 728.8 73.7C743 112.7 757 216.3 771.2 216.5C785.3 216.7 799.7 113.3 814 91.2C828.3 69 842.7 128 857 132.2C871.3 136.3 885.7 85.7 892.8 60.3L900 35L900 0L892.8 0C885.7 0 871.3 0 857 0C842.7 0 828.3 0 814 0C799.7 0 785.3 0 771.2 0C757 0 743 0 728.8 0C714.7 0 700.3 0 686 0C671.7 0 657.3 0 643 0C628.7 0 614.3 0 600 0C585.7 0 571.3 0 557 0C542.7 0 528.3 0 514 0C499.7 0 485.3 0 471.2 0C457 0 443 0 428.8 0C414.7 0 400.3 0 386 0C371.7 0 357.3 0 343 0C328.7 0 314.3 0 300 0C285.7 0 271.3 0 257 0C242.7 0 228.3 0 214 0C199.7 0 185.3 0 171.2 0C157 0 143 0 128.8 0C114.7 0 100.3 0 86 0C71.7 0 57.3 0 43 0C28.7 0 14.3 0 7.2 0L0 0Z" fill="#a4b6fa"></path><path d="M0 58L7.2 86.5C14.3 115 28.7 172 43 181C57.3 190 71.7 151 86 142C100.3 133 114.7 154 128.8 166C143 178 157 181 171.2 173.7C185.3 166.3 199.7 148.7 214 150.2C228.3 151.7 242.7 172.3 257 182.8C271.3 193.3 285.7 193.7 300 163.8C314.3 134 328.7 74 343 57.8C357.3 41.7 371.7 69.3 386 77.8C400.3 86.3 414.7 75.7 428.8 85.7C443 95.7 457 126.3 471.2 116.3C485.3 106.3 499.7 55.7 514 43.3C528.3 31 542.7 57 557 96.5C571.3 136 585.7 189 600 195C614.3 201 628.7 160 643 125.8C657.3 91.7 671.7 64.3 686 83.5C700.3 102.7 714.7 168.3 728.8 172.2C743 176 757 118 771.2 109C785.3 100 799.7 140 814 137.2C828.3 134.3 842.7 88.7 857 85C871.3 81.3 885.7 119.7 892.8 138.8L900 158L900 0L892.8 0C885.7 0 871.3 0 857 0C842.7 0 828.3 0 814 0C799.7 0 785.3 0 771.2 0C757 0 743 0 728.8 0C714.7 0 700.3 0 686 0C671.7 0 657.3 0 643 0C628.7 0 614.3 0 600 0C585.7 0 571.3 0 557 0C542.7 0 528.3 0 514 0C499.7 0 485.3 0 471.2 0C457 0 443 0 428.8 0C414.7 0 400.3 0 386 0C371.7 0 357.3 0 343 0C328.7 0 314.3 0 300 0C285.7 0 271.3 0 257 0C242.7 0 228.3 0 214 0C199.7 0 185.3 0 171.2 0C157 0 143 0 128.8 0C114.7 0 100.3 0 86 0C71.7 0 57.3 0 43 0C28.7 0 14.3 0 7.2 0L0 0Z" fill="#949df7"></path><path d="M0 50L7.2 46.5C14.3 43 28.7 36 43 38.7C57.3 41.3 71.7 53.7 86 78.7C100.3 103.7 114.7 141.3 128.8 138C143 134.7 157 90.3 171.2 73.5C185.3 56.7 199.7 67.3 214 70.3C228.3 73.3 242.7 68.7 257 72.8C271.3 77 285.7 90 300 90.7C314.3 91.3 328.7 79.7 343 69.3C357.3 59 371.7 50 386 70.5C400.3 91 414.7 141 428.8 164C443 187 457 183 471.2 168C485.3 153 499.7 127 514 99.7C528.3 72.3 542.7 43.7 557 37.8C571.3 32 585.7 49 600 66.2C614.3 83.3 628.7 100.7 643 97.3C657.3 94 671.7 70 686 52C700.3 34 714.7 22 728.8 21.3C743 20.7 757 31.3 771.2 43.3C785.3 55.3 799.7 68.7 814 89.7C828.3 110.7 842.7 139.3 857 127.5C871.3 115.7 885.7 63.3 892.8 37.2L900 11L900 0L892.8 0C885.7 0 871.3 0 857 0C842.7 0 828.3 0 814 0C799.7 0 785.3 0 771.2 0C757 0 743 0 728.8 0C714.7 0 700.3 0 686 0C671.7 0 657.3 0 643 0C628.7 0 614.3 0 600 0C585.7 0 571.3 0 557 0C542.7 0 528.3 0 514 0C499.7 0 485.3 0 471.2 0C457 0 443 0 428.8 0C414.7 0 400.3 0 386 0C371.7 0 357.3 0 343 0C328.7 0 314.3 0 300 0C285.7 0 271.3 0 257 0C242.7 0 228.3 0 214 0C199.7 0 185.3 0 171.2 0C157 0 143 0 128.8 0C114.7 0 100.3 0 86 0C71.7 0 57.3 0 43 0C28.7 0 14.3 0 7.2 0L0 0Z" fill="#8a83f1"></path><path d="M0 42L7.2 36.2C14.3 30.3 28.7 18.7 43 29.3C57.3 40 71.7 73 86 72.7C100.3 72.3 114.7 38.7 128.8 39.8C143 41 157 77 171.2 79C185.3 81 199.7 49 214 46.8C228.3 44.7 242.7 72.3 257 87.8C271.3 103.3 285.7 106.7 300 101.8C314.3 97 328.7 84 343 77.3C357.3 70.7 371.7 70.3 386 66.5C400.3 62.7 414.7 55.3 428.8 62C443 68.7 457 89.3 471.2 102.5C485.3 115.7 499.7 121.3 514 124C528.3 126.7 542.7 126.3 557 108.2C571.3 90 585.7 54 600 35.2C614.3 16.3 628.7 14.7 643 17.7C657.3 20.7 671.7 28.3 686 30.8C700.3 33.3 714.7 30.7 728.8 24.7C743 18.7 757 9.3 771.2 14.2C785.3 19 799.7 38 814 50.3C828.3 62.7 842.7 68.3 857 72.8C871.3 77.3 885.7 80.7 892.8 82.3L900 84L900 0L892.8 0C885.7 0 871.3 0 857 0C842.7 0 828.3 0 814 0C799.7 0 785.3 0 771.2 0C757 0 743 0 728.8 0C714.7 0 700.3 0 686 0C671.7 0 657.3 0 643 0C628.7 0 614.3 0 600 0C585.7 0 571.3 0 557 0C542.7 0 528.3 0 514 0C499.7 0 485.3 0 471.2 0C457 0 443 0 428.8 0C414.7 0 400.3 0 386 0C371.7 0 357.3 0 343 0C328.7 0 314.3 0 300 0C285.7 0 271.3 0 257 0C242.7 0 228.3 0 214 0C199.7 0 185.3 0 171.2 0C157 0 143 0 128.8 0C114.7 0 100.3 0 86 0C71.7 0 57.3 0 43 0C28.7 0 14.3 0 7.2 0L0 0Z" fill="#8865e6"></path></svg>