<svg width="39" height="39" viewBox="0 0 39 39" fill="none" xmlns="http://www.w3.org/2000/svg">
<path d="M38.4472 37.2969L37.6379 36.5259C37.238 35.9985 36.8126 35.5317 36.349 35.1064L36.3411 35.1C35.8652 34.6677 35.3708 34.2567 34.8578 33.8669C34.4468 33.5844 33.8818 33.244 33.1627 32.8457C32.5717 32.5797 32.1097 32.1129 31.8596 31.533L31.8532 31.517L31.7767 31.4788C32.1145 31.4453 32.4235 31.3832 32.7199 31.2956L32.6832 31.3051L33.5913 31.055C33.9673 30.9371 34.4022 30.8607 34.8531 30.8431H34.8626C35.3374 30.824 35.7851 30.7476 36.212 30.6217L36.1722 30.6313C36.3782 30.5803 36.5901 30.5224 36.8078 30.4576C37.0256 30.3928 37.212 30.3349 37.367 30.2839V30.0147C37.213 29.7842 37.0266 29.5208 36.8078 29.2245C36.5991 28.9409 36.365 28.694 36.1021 28.4789L36.0941 28.4725C35.4261 27.882 34.7341 27.3106 34.0183 26.7583C33.3874 26.2661 32.6721 25.7642 31.9297 25.299L31.8213 25.2353C31.4294 24.9772 30.9802 24.7382 30.507 24.5423L30.4528 24.5232C29.977 24.3299 29.5081 24.118 29.0461 23.8875C28.8915 23.811 28.7115 23.7441 28.5251 23.6979L28.5076 23.6947C28.3212 23.6565 28.1619 23.5609 28.0456 23.4255L28.044 23.4239C27.8241 23.1339 27.6314 22.8042 27.4784 22.4537L27.4657 22.4218C27.3117 22.0618 27.1449 21.7161 26.9654 21.3847C26.5799 20.6391 26.2071 19.8813 25.8471 19.1113C25.487 18.3413 25.1413 17.5702 24.8099 16.798C24.5795 16.284 24.3676 15.7705 24.1743 15.2575C23.9608 14.6935 23.7202 14.2108 23.4398 13.7567L23.4605 13.7934C22.7723 12.6208 22.0857 11.6203 21.3401 10.6692L21.3847 10.7298C20.6471 9.79939 19.8824 8.96777 19.0603 8.19669L19.0476 8.18554C18.2366 7.42402 17.3636 6.69755 16.4475 6.02525L16.3695 5.96949C15.4179 5.27806 14.377 4.59726 13.2469 3.92708C12.7929 3.65944 12.2656 3.44118 11.7096 3.30098L11.6681 3.29142L9.89498 2.84853L8.89289 2.77206C8.5594 2.74657 8.22537 2.73382 7.89081 2.73382C7.65503 2.60956 7.4527 2.4614 7.27427 2.28934C7.09902 2.12206 6.90944 1.96434 6.71189 1.81936L6.69596 1.80821C5.73211 1.24583 4.61213 0.73125 3.44118 0.326593L3.30576 0.285172C2.99828 0.105147 2.62868 0 2.23517 0C1.95478 0 1.68554 0.0541667 1.4402 0.151348L1.45453 0.146569C0.849142 0.387132 0.387132 0.876226 0.18799 1.4848L0.183211 1.50074C0.0669118 1.77476 0 2.09179 0 2.42635C0 3.01262 0.207108 3.54951 0.552819 3.96851L0.549632 3.96373C1.12741 4.73374 1.5703 5.33913 1.87831 5.7799C2.10878 6.08897 2.34669 6.41025 2.59203 6.74375C2.81667 7.04326 3.01581 7.38578 3.17672 7.74743L3.18946 7.78088C3.27868 7.97047 3.35674 8.19669 3.41409 8.42929L3.41887 8.45478C3.46985 8.67357 3.53411 8.91148 3.61164 9.1685C3.84212 9.75903 4.06038 10.3644 4.26642 10.9847C4.49105 11.6618 4.73958 12.2353 5.02794 12.7817L4.99767 12.718C5.15167 13.0005 5.30621 13.2767 5.46128 13.5464C5.61634 13.8162 5.78309 14.0796 5.96152 14.3366C6.06507 14.4928 6.19571 14.6218 6.34547 14.7222L6.35025 14.7254C6.50797 14.8401 6.61152 15.0201 6.61949 15.224C6.43787 15.4917 6.3152 15.8135 6.27378 16.1592L6.27218 16.1687C6.21642 16.5718 6.13677 16.9303 6.02843 17.276L6.04118 17.2282C5.68591 18.2892 5.48199 19.5127 5.48199 20.7825C5.48199 21.1935 5.5027 21.5982 5.54571 21.998L5.54093 21.9487C5.63652 23.4749 6.09694 24.8768 6.83456 26.0908L6.81226 26.051C7.1261 26.521 7.46226 26.9304 7.83346 27.3048C8.1011 27.6043 8.48983 27.7923 8.92316 27.7923C9.16532 27.7923 9.39473 27.7333 9.59547 27.6282L9.5875 27.6314C10.1451 27.4306 10.5418 26.9208 10.5705 26.3138V26.3107C10.6469 25.5555 10.7616 24.88 10.9194 24.2205L10.8987 24.3272C10.9369 24.2268 10.9592 24.1121 10.9592 23.9911C10.9592 23.9672 10.9576 23.9433 10.956 23.9194V23.9225C10.9433 23.8068 11.0139 23.6974 11.1679 23.5944V23.6708C11.3219 24.0309 11.4823 24.3904 11.649 24.7494C11.8158 25.1084 11.9889 25.4679 12.1684 25.8279C12.6384 26.5433 13.137 27.1678 13.6851 27.7429L13.6803 27.7381C14.2299 28.3308 14.8289 28.8629 15.4757 29.3328L15.5108 29.3567C15.8485 29.6148 16.1449 29.8936 16.4125 30.1979L16.4189 30.2043C16.6706 30.5006 16.9717 30.7444 17.311 30.9276L17.327 30.9355V30.8973H17.4034C17.3413 30.7587 17.2409 30.6472 17.1167 30.5707L17.1135 30.5691C16.9876 30.499 16.8793 30.4289 16.7773 30.3525L16.7853 30.3572C16.5548 30.1268 16.3169 29.8697 16.0716 29.5862C15.8262 29.3026 15.6016 29.0328 15.3977 28.7768C14.8581 28.0313 14.3435 27.2522 13.8539 26.4397C13.3643 25.6272 12.9018 24.8014 12.4663 23.9624C12.2603 23.5513 12.0611 23.1276 11.8689 22.6911C11.6766 22.2545 11.4902 21.8308 11.3097 21.4197C11.2316 21.262 11.1775 21.0804 11.1567 20.8876V20.8797C11.1472 20.6964 11.042 20.5387 10.8891 20.4575L10.8859 20.4559C10.6931 20.7841 10.4797 21.0676 10.2359 21.3241L10.2375 21.3225C9.98419 21.5886 9.77708 21.9025 9.62892 22.2466L9.62096 22.2673C9.39632 22.8121 9.23223 23.4446 9.16054 24.1058L9.15735 24.136C9.08088 24.8168 9.00388 25.5167 8.92635 26.2358L8.84988 26.274L8.81164 26.3123C8.39743 26.2278 8.0565 25.9634 7.87169 25.6065L7.86851 25.5985C7.67521 25.2257 7.50208 24.8593 7.34914 24.4993C6.95405 23.4844 6.7087 22.3103 6.67525 21.0836V21.0692C6.66091 20.8749 6.65453 20.6471 6.65453 20.4192C6.65453 19.3582 6.82181 18.3354 7.13088 17.3763L7.11177 17.4464C7.18824 17.1639 7.35498 16.6881 7.61201 16.019C7.86904 15.3499 7.92055 14.8873 7.76654 14.6314C7.68689 14.3685 7.53873 14.1471 7.34436 13.9782L7.34277 13.9766C7.14841 13.8077 6.97157 13.6309 6.80907 13.4429L6.80429 13.4365C6.6248 13.1774 6.45168 12.9012 6.28493 12.6081C6.11818 12.315 5.97055 12.0261 5.84203 11.7414C5.57917 11.1328 5.30993 10.3697 5.08689 9.58591L5.05184 9.44412C4.79853 8.544 4.51654 7.78248 4.18199 7.04963L4.22341 7.15159C4.04657 6.75012 3.84105 6.40282 3.60208 6.08578L3.61164 6.09853C3.35249 5.75229 3.12096 5.42463 2.91703 5.11556C2.65788 4.78207 2.40086 4.46078 2.14596 4.15172C1.88627 3.83787 1.65527 3.48419 1.46728 3.10502L1.45294 3.07316C1.37647 2.91863 1.30956 2.7386 1.26336 2.55221L1.26017 2.53468C1.24265 2.47892 1.23309 2.4136 1.23309 2.34828C1.23309 2.21765 1.27132 2.09498 1.33824 1.99301L1.33664 1.9962C1.35417 1.90699 1.39559 1.82892 1.45294 1.7652C1.51507 1.70944 1.59473 1.66801 1.68076 1.65049H1.68395C1.81936 1.56287 1.98346 1.51029 2.16189 1.51029C2.29571 1.51029 2.42476 1.54056 2.53787 1.59473L2.53309 1.59314C2.88199 1.69191 3.16397 1.79069 3.43958 1.9038L3.38223 1.88309C3.86973 2.08913 4.31953 2.28828 4.73162 2.48051C5.20637 2.70674 5.61103 2.94571 5.99338 3.21176L5.96471 3.19265C6.17075 3.32116 6.37627 3.46242 6.58125 3.61642C6.78623 3.77042 7.00449 3.92496 7.23603 4.08002H7.7761C8.18713 4.08002 8.62365 4.09967 9.08566 4.13897C9.55245 4.17561 9.98419 4.26324 10.3952 4.40025L10.357 4.38909C11.1233 4.61691 11.7813 4.88615 12.4058 5.20956L12.3404 5.17929C12.9703 5.50004 13.5677 5.84044 14.1327 6.20049C15.0711 6.78517 15.882 7.38419 16.6451 8.03897L16.618 8.01667C17.4146 8.69853 18.1379 9.39792 18.8165 10.1371L18.8325 10.1562C19.4952 10.8795 20.1277 11.665 20.706 12.4886L20.7554 12.5635C21.2875 13.3154 21.8244 14.1853 22.3071 15.087L22.374 15.2224C22.5031 15.4678 22.6337 15.7689 22.7468 16.0763L22.7643 16.1289C22.8674 16.4242 22.9826 16.7269 23.1101 17.037C23.3926 17.6796 23.6953 18.328 24.0181 18.9822C24.341 19.6365 24.6437 20.2727 24.9262 20.8908L25.7738 22.7404C26.0717 23.3873 26.4047 23.9449 26.7918 24.4594L26.7743 24.4355C27.0977 24.7813 27.5294 25.0234 28.0137 25.1078L28.0265 25.1094C28.6127 25.256 29.1066 25.4217 29.5846 25.6176L29.5097 25.5906C29.7375 25.6941 30.0306 25.804 30.3317 25.9012L30.3955 25.9188C30.7332 26.0223 31.0263 26.1593 31.2956 26.3314L31.2813 26.3234C31.8022 26.615 32.2435 26.9017 32.6641 27.214L32.6306 27.1901C33.0672 27.5108 33.5037 27.8135 33.9402 28.0982C34.1462 28.2522 34.492 28.4768 34.9773 28.7721C35.4627 29.0673 35.7197 29.3435 35.7484 29.6005C35.5668 29.5941 35.3517 29.5893 35.1366 29.5893C34.3528 29.5893 33.5817 29.6403 32.8266 29.7391L32.9158 29.7295C32.0619 29.8442 31.2876 30.0529 30.5596 30.3509L30.6233 30.3286C30.4433 30.4066 30.2282 30.4783 30.0051 30.5341L29.9749 30.5404C29.7487 30.5739 29.5734 30.7555 29.5511 30.9817C29.6483 31.1028 29.7263 31.2446 29.7789 31.3975L29.7821 31.4071C29.8363 31.5696 29.9016 31.7098 29.9813 31.8404L29.9765 31.8309C30.1661 32.167 30.37 32.457 30.5994 32.7246L30.593 32.7167C30.8176 32.9939 31.071 33.2344 31.3513 33.4399L31.3625 33.4479C31.6217 33.654 31.8914 33.8659 32.1718 34.0836C32.4283 34.2843 32.7183 34.4819 33.0194 34.6603L33.0576 34.681C33.5101 34.9582 34.0358 35.2227 34.5838 35.4441L34.6571 35.4696C35.2529 35.7086 35.7643 35.9858 36.2391 36.3156L36.2136 36.298C36.5227 36.4775 36.8307 36.6767 37.1376 36.8955C37.4446 37.1143 37.7398 37.3261 38.0234 37.5311C38.1397 37.6458 38.2417 37.7733 38.3277 37.9119L38.3325 37.9199C38.4775 38.0855 38.6782 38.1987 38.906 38.2273H38.9108V38.1509C38.7706 38.0441 38.667 37.896 38.6176 37.7255L38.6161 37.7191C38.5762 37.5566 38.5173 37.4148 38.4376 37.2842L38.4408 37.2906L38.4472 37.2969ZM8.85306 6.70074C8.64702 6.70074 8.45425 6.70711 8.27476 6.71985C8.09155 6.7326 7.92108 6.76605 7.76017 6.82022L7.77451 6.81544V6.85368H7.85098C7.954 7.00768 8.08358 7.1808 8.23971 7.37304C8.39583 7.56528 8.53709 7.75167 8.66348 7.93223L9.28003 9.20355L9.3565 9.16532C9.53652 9.03468 9.67512 8.85944 9.75797 8.65392L9.76115 8.64596C9.844 8.42451 9.89179 8.16642 9.89179 7.89877C9.89179 7.8701 9.89179 7.84142 9.8902 7.81275V7.81752C9.81851 7.74743 9.75956 7.66458 9.71814 7.57218L9.71655 7.5674L9.5875 7.27745C9.50306 7.14363 9.38517 7.03848 9.24657 6.97157L9.24179 6.96998C9.09203 6.89828 8.96458 6.80748 8.85306 6.70074Z" fill="black"/>
</svg>
