<svg width="51" height="58" viewBox="0 0 51 58" fill="none" xmlns="http://www.w3.org/2000/svg">
<path d="M25.4875 0C24.7119 0 23.9365 0.199724 23.2671 0.601262L2.20801 13.3628C0.848008 14.1882 0 15.751 0 17.4017V40.5547C0 42.2278 0.848008 43.7682 2.20801 44.5936L7.73633 47.9398C10.4138 49.3228 11.3686 49.3209 12.5798 49.3209C16.5536 49.3209 18.8262 46.8005 18.8262 42.4282V18.5389C18.8262 18.182 18.5519 17.8897 18.2119 17.8897H15.5557C15.1944 17.8897 14.9373 18.182 14.9373 18.5389V42.4064C14.9373 44.3695 13.0058 46.2874 9.88208 44.659L4.10059 41.1559C3.88809 41.0444 3.76025 40.8001 3.76025 40.5547V17.4235C3.76025 17.1558 3.88809 16.93 4.10059 16.7961L25.1597 4.03891C25.3509 3.90507 25.6071 3.90507 25.8196 4.03891L46.8787 16.7961C47.0912 16.93 47.219 17.1564 47.219 17.4017V40.5547C47.219 40.8001 47.0907 41.0444 46.8994 41.1559L25.8196 53.9393C25.6283 54.0508 25.3509 54.0508 25.1597 53.9393L19.7393 50.5714C19.5905 50.4598 19.3817 50.4386 19.2329 50.5278C17.7242 51.4201 17.4479 51.5309 16.0454 52.044C15.7054 52.1556 15.1738 52.3779 16.2363 53.0026L23.2671 57.377C23.9471 57.7785 24.7142 58 25.4792 58C26.2655 58 27.028 57.7785 27.708 57.377L48.792 44.5936C50.152 43.7682 51 42.2278 51 40.5547V17.4235C51 15.7504 50.152 14.21 48.792 13.3846L27.708 0.601262C27.0386 0.199724 26.2632 0 25.4875 0ZM31.1528 17.8592C25.1391 17.8592 21.5488 20.5344 21.5488 24.9959C21.5488 29.8367 25.1155 31.1731 30.8955 31.7754C37.8018 32.4892 38.333 33.5631 38.333 34.9908C38.333 37.4447 36.4449 38.4938 32.0037 38.4938C26.4149 38.4938 25.1816 37.0194 24.7778 34.1194C24.7353 33.8071 24.4818 33.5835 24.1843 33.5835H21.4409C21.1009 33.5835 20.8474 33.8763 20.8474 34.2109C20.8474 37.9363 22.7812 42.3715 32.0037 42.3715C38.6762 42.3715 42.5 39.6089 42.5 34.7904C42.5 30.0166 39.4183 28.7426 32.9583 27.828C26.392 26.9357 25.7324 26.467 25.7324 24.8609C25.7324 23.5224 26.3078 21.7631 31.1528 21.7631C35.4666 21.7631 37.0808 22.7415 37.7395 25.7976C37.8033 26.0876 38.0355 26.3117 38.333 26.3117H41.0764C41.2464 26.3117 41.393 26.2234 41.5205 26.0895C41.6268 25.978 41.6912 25.798 41.6699 25.5972C41.2449 20.3326 37.9103 17.8592 31.1528 17.8592Z" fill="white"/>
</svg>
