<svg width="62" height="56" viewBox="0 0 62 56" fill="none" xmlns="http://www.w3.org/2000/svg">
<path d="M36.5364 27.6674C36.5364 24.6089 34.0579 22.1292 31 22.1292C27.9426 22.1292 25.4636 24.6089 25.4636 27.6674C25.4636 30.7262 27.9426 33.2058 31 33.2058C34.0579 33.2058 36.5364 30.7262 36.5364 27.6674Z" fill="#53C1DE"/>
<path fill-rule="evenodd" clip-rule="evenodd" d="M48.9808 17.3854C50.1499 12.6329 51.6195 3.81981 46.4388 0.831901C41.2823 -2.14298 34.572 3.55744 31.0287 6.97911C27.4958 3.59154 20.597 -2.08452 15.4207 0.912882C10.2662 3.89774 11.8557 12.5647 13.0508 17.347C8.24251 18.7131 0 21.6556 0 27.6674C0 33.6621 8.23393 36.8634 13.0138 38.2282C11.8143 43.037 10.3043 51.5801 15.4654 54.5584C20.6611 57.5552 27.5383 52.0142 31.1145 48.5551C34.6805 51.997 41.3263 57.5742 46.4839 54.5876C51.6576 51.5916 50.3101 42.8967 49.115 38.0866C53.7484 36.7188 62 33.5872 62 27.6674C62 21.7134 53.7133 18.747 48.9808 17.3854ZM48.3935 35.5376C47.6088 33.0527 46.5496 30.4102 45.254 27.6806C46.4907 25.0153 47.5087 22.407 48.2715 19.9381C51.7409 20.9443 59.3516 23.2439 59.3516 27.6674C59.3516 32.1324 52.0482 34.4538 48.3935 35.5376ZM45.1567 52.2946C41.3085 54.5228 35.5923 49.1893 32.9588 46.6547C34.7059 44.7432 36.4519 42.521 38.1558 40.0534C41.1533 39.7875 43.9849 39.3525 46.5529 38.7587C47.394 42.1611 49.0217 50.0564 45.1567 52.2946ZM16.7888 52.2628C12.9403 50.043 14.6993 42.4195 15.5818 38.8772C18.1212 39.4393 20.9324 39.8436 23.937 40.0873C25.6521 42.5018 27.4486 44.7212 29.259 46.6649C27.0223 48.8293 20.6553 54.4929 16.7888 52.2628ZM2.64841 27.6674C2.64841 23.1857 10.2136 20.9027 13.762 19.8991C14.538 22.4234 15.5557 25.0629 16.7839 27.732C15.5398 30.4407 14.5075 33.122 13.7244 35.6762C10.341 34.7073 2.64841 32.1518 2.64841 27.6674ZM16.7476 3.20586C20.6119 0.968363 26.6077 6.41759 29.1729 8.87027C27.3718 10.8051 25.5917 13.0078 23.8913 15.4084C20.9754 15.6788 18.1841 16.1129 15.618 16.6946C14.6552 12.8374 12.8876 5.44095 16.7476 3.20586ZM40.0505 18.2882C42.0288 18.5379 43.9241 18.8701 45.7037 19.2765C45.1695 20.9895 44.5036 22.7808 43.7193 24.617C42.5824 22.4592 41.3621 20.3447 40.0505 18.2882ZM31.0296 10.7636C32.2512 12.0874 33.4746 13.5658 34.6783 15.1696C32.2369 15.054 29.7916 15.0536 27.3503 15.1679C28.5549 13.5789 29.7889 12.1028 31.0296 10.7636ZM18.3034 24.6151C17.5321 22.7852 16.8722 20.9861 16.3333 19.2485C18.1023 18.8526 19.9888 18.5289 21.9542 18.2833C20.639 20.3353 19.4207 22.449 18.3034 24.6151ZM22.0106 37.2406C19.9803 37.0139 18.0653 36.7067 16.2968 36.3216C16.8442 34.5536 17.5187 32.7156 18.3064 30.8463C19.4391 33.035 20.676 35.1691 22.0106 37.2406ZM31.1029 44.7583C29.8476 43.4033 28.5954 41.9046 27.3726 40.2926C29.8278 40.389 32.2877 40.3892 34.7427 40.2796C33.5354 41.921 32.3163 43.4218 31.1029 44.7583ZM43.7445 30.7512C44.5732 32.6407 45.2718 34.4687 45.8267 36.2069C44.0289 36.6173 42.0881 36.9478 40.0431 37.1932C41.3643 35.0977 42.6041 32.9503 43.7445 30.7512ZM36.6777 37.5143C32.9222 37.7828 29.1433 37.7798 25.3865 37.5363C23.2519 34.4171 21.3516 31.1367 19.7112 27.7311C21.3437 24.3326 23.2302 21.0586 25.3547 17.9443C29.1142 17.66 32.8968 17.6592 36.6563 17.946C38.7626 21.0601 40.6462 24.3255 42.3164 27.6934C40.666 31.0902 38.7696 34.3708 36.6777 37.5143ZM45.116 3.1271C48.9812 5.35726 47.2607 13.2778 46.4163 16.7221C43.8441 16.1283 41.0508 15.6865 38.1265 15.4118C36.4227 12.9852 34.6576 10.7787 32.8856 8.86891C35.4836 6.36339 41.2881 0.918746 45.116 3.1271Z" fill="#53C1DE"/>
</svg>
